<svg width="181" height="32" viewBox="0 0 181 32" fill="none" xmlns="http://www.w3.org/2000/svg">
<path d="M24.8137 7.01125C23.305 4.425 21.24 3 19 3H13C10.76 3 8.695 4.425 7.18625 7.01125C5.77625 9.4275 5 12.625 5 16C5 19.375 5.77625 22.5725 7.18625 24.9888C8.695 27.575 10.76 29 13 29H19C21.24 29 23.305 27.575 24.8137 24.9888C26.2237 22.5725 27 19.375 27 16C27 12.625 26.2237 9.4275 24.8137 7.01125ZM24.9737 15H20.9737C20.8956 12.948 20.487 10.9219 19.7638 9H23.5875C24.3525 10.6725 24.8575 12.75 24.9737 15ZM22.3988 7H18.8075C18.3898 6.2754 17.8862 5.60387 17.3075 5H19C20.25 5 21.425 5.75 22.3988 7ZM7 16C7 10.0375 9.75 5 13 5C16.25 5 19 10.0375 19 16C19 21.9625 16.25 27 13 27C9.75 27 7 21.9625 7 16ZM19 27H17.3113C17.8899 26.3961 18.3936 25.7246 18.8113 25H22.4025C21.425 26.25 20.25 27 19 27ZM23.5875 23H19.765C20.4883 21.0781 20.8969 19.052 20.975 17H24.975C24.8575 19.25 24.3525 21.3275 23.5875 23Z" fill="white"/>
<path d="M49.192 24.288C47.528 24.288 46.088 23.928 44.872 23.208C43.672 22.472 42.744 21.456 42.088 20.16C41.432 18.848 41.104 17.336 41.104 15.624C41.104 13.896 41.432 12.384 42.088 11.088C42.744 9.776 43.672 8.752 44.872 8.016C46.088 7.28 47.528 6.912 49.192 6.912C51.16 6.912 52.768 7.392 54.016 8.352C55.264 9.312 56.056 10.656 56.392 12.384H53.56C53.336 11.408 52.856 10.632 52.12 10.056C51.384 9.48 50.4 9.192 49.168 9.192C47.488 9.192 46.16 9.768 45.184 10.92C44.208 12.056 43.72 13.624 43.72 15.624C43.72 17.608 44.208 19.168 45.184 20.304C46.16 21.44 47.488 22.008 49.168 22.008C50.4 22.008 51.384 21.736 52.12 21.192C52.856 20.648 53.336 19.904 53.56 18.96H56.392C56.056 20.624 55.264 21.928 54.016 22.872C52.768 23.816 51.16 24.288 49.192 24.288ZM59.0924 24V12.096H61.3724L61.5884 14.352C62.0044 13.568 62.5804 12.952 63.3164 12.504C64.0684 12.04 64.9724 11.808 66.0284 11.808V14.472H65.3324C64.6284 14.472 63.9964 14.592 63.4364 14.832C62.8924 15.056 62.4524 15.448 62.1164 16.008C61.7964 16.552 61.6364 17.312 61.6364 18.288V24H59.0924ZM69.6016 29.28L72.4576 23.016H71.7616L67.0576 12.096H69.8176L73.4656 20.904L77.2816 12.096H79.9696L72.2896 29.28H69.6016ZM82.0611 29.28V12.096H84.3411L84.6051 13.944C84.9891 13.384 85.5171 12.888 86.1891 12.456C86.8611 12.024 87.7251 11.808 88.7811 11.808C89.9331 11.808 90.9491 12.08 91.8291 12.624C92.7091 13.168 93.3971 13.912 93.8931 14.856C94.4051 15.8 94.6611 16.872 94.6611 18.072C94.6611 19.272 94.4051 20.344 93.8931 21.288C93.3971 22.216 92.7091 22.952 91.8291 23.496C90.9491 24.024 89.9251 24.288 88.7571 24.288C87.8291 24.288 87.0051 24.104 86.2851 23.736C85.5811 23.368 85.0211 22.848 84.6051 22.176V29.28H82.0611ZM88.3251 22.08C89.4131 22.08 90.3091 21.712 91.0131 20.976C91.7171 20.224 92.0691 19.248 92.0691 18.048C92.0691 17.264 91.9091 16.568 91.5891 15.96C91.2691 15.352 90.8291 14.88 90.2691 14.544C89.7091 14.192 89.0611 14.016 88.3251 14.016C87.2371 14.016 86.3411 14.392 85.6371 15.144C84.9491 15.896 84.6051 16.864 84.6051 18.048C84.6051 19.248 84.9491 20.224 85.6371 20.976C86.3411 21.712 87.2371 22.08 88.3251 22.08ZM101.936 24C100.768 24 99.8399 23.72 99.1519 23.16C98.4639 22.584 98.1199 21.568 98.1199 20.112V14.232H96.0799V12.096H98.1199L98.4319 9.072H100.664V12.096H104.024V14.232H100.664V20.112C100.664 20.768 100.8 21.224 101.072 21.48C101.36 21.72 101.848 21.84 102.536 21.84H103.904V24H101.936ZM111.91 24.288C110.774 24.288 109.75 24.032 108.838 23.52C107.942 22.992 107.23 22.264 106.702 21.336C106.174 20.392 105.91 19.296 105.91 18.048C105.91 16.8 106.174 15.712 106.702 14.784C107.246 13.84 107.974 13.112 108.886 12.6C109.798 12.072 110.814 11.808 111.934 11.808C113.07 11.808 114.086 12.072 114.982 12.6C115.894 13.112 116.614 13.84 117.142 14.784C117.686 15.712 117.958 16.8 117.958 18.048C117.958 19.296 117.686 20.392 117.142 21.336C116.614 22.264 115.894 22.992 114.982 23.52C114.07 24.032 113.046 24.288 111.91 24.288ZM111.91 22.104C112.518 22.104 113.078 21.952 113.59 21.648C114.118 21.344 114.542 20.896 114.862 20.304C115.182 19.696 115.342 18.944 115.342 18.048C115.342 17.152 115.182 16.408 114.862 15.816C114.558 15.208 114.142 14.752 113.614 14.448C113.102 14.144 112.542 13.992 111.934 13.992C111.326 13.992 110.758 14.144 110.23 14.448C109.718 14.752 109.302 15.208 108.982 15.816C108.662 16.408 108.502 17.152 108.502 18.048C108.502 18.944 108.662 19.696 108.982 20.304C109.302 20.896 109.718 21.344 110.23 21.648C110.742 21.952 111.302 22.104 111.91 22.104ZM120.806 24V7.2H126.686C127.998 7.2 129.086 7.424 129.95 7.872C130.814 8.304 131.454 8.904 131.87 9.672C132.302 10.424 132.518 11.28 132.518 12.24C132.518 13.152 132.31 13.992 131.894 14.76C131.494 15.512 130.862 16.112 129.998 16.56C129.134 17.008 128.03 17.232 126.686 17.232H123.35V24H120.806ZM123.35 15.144H126.566C127.766 15.144 128.622 14.888 129.134 14.376C129.662 13.848 129.926 13.136 129.926 12.24C129.926 11.312 129.662 10.592 129.134 10.08C128.622 9.552 127.766 9.288 126.566 9.288H123.35V15.144ZM134.936 24V6.72H137.48V24H134.936ZM144.734 24.288C143.726 24.288 142.894 24.12 142.238 23.784C141.582 23.448 141.094 23.008 140.774 22.464C140.454 21.904 140.294 21.296 140.294 20.64C140.294 19.488 140.742 18.576 141.638 17.904C142.534 17.232 143.814 16.896 145.478 16.896H148.598V16.68C148.598 15.752 148.342 15.056 147.83 14.592C147.334 14.128 146.686 13.896 145.886 13.896C145.182 13.896 144.566 14.072 144.038 14.424C143.526 14.76 143.214 15.264 143.102 15.936H140.558C140.638 15.072 140.926 14.336 141.422 13.728C141.934 13.104 142.574 12.632 143.342 12.312C144.126 11.976 144.982 11.808 145.91 11.808C147.574 11.808 148.862 12.248 149.774 13.128C150.686 13.992 151.142 15.176 151.142 16.68V24H148.934L148.718 21.96C148.382 22.616 147.894 23.168 147.254 23.616C146.614 24.064 145.774 24.288 144.734 24.288ZM145.238 22.224C145.926 22.224 146.502 22.064 146.966 21.744C147.446 21.408 147.814 20.968 148.07 20.424C148.342 19.88 148.51 19.28 148.574 18.624H145.742C144.734 18.624 144.014 18.8 143.582 19.152C143.166 19.504 142.958 19.944 142.958 20.472C142.958 21.016 143.158 21.448 143.558 21.768C143.974 22.072 144.534 22.224 145.238 22.224ZM159.748 24.288C158.58 24.288 157.532 24.024 156.604 23.496C155.692 22.968 154.972 22.24 154.444 21.312C153.932 20.368 153.676 19.28 153.676 18.048C153.676 16.816 153.932 15.736 154.444 14.808C154.972 13.864 155.692 13.128 156.604 12.6C157.532 12.072 158.58 11.808 159.748 11.808C161.22 11.808 162.452 12.192 163.444 12.96C164.452 13.728 165.1 14.768 165.388 16.08H162.724C162.564 15.424 162.212 14.912 161.668 14.544C161.124 14.176 160.484 13.992 159.748 13.992C159.124 13.992 158.548 14.152 158.02 14.472C157.492 14.776 157.068 15.232 156.748 15.84C156.428 16.432 156.268 17.168 156.268 18.048C156.268 18.928 156.428 19.672 156.748 20.28C157.068 20.872 157.492 21.328 158.02 21.648C158.548 21.968 159.124 22.128 159.748 22.128C160.484 22.128 161.124 21.944 161.668 21.576C162.212 21.208 162.564 20.688 162.724 20.016H165.388C165.116 21.296 164.476 22.328 163.468 23.112C162.46 23.896 161.22 24.288 159.748 24.288ZM173.715 24.288C172.547 24.288 171.507 24.032 170.595 23.52C169.699 22.992 168.995 22.264 168.483 21.336C167.971 20.408 167.715 19.328 167.715 18.096C167.715 16.848 167.963 15.752 168.459 14.808C168.971 13.864 169.675 13.128 170.571 12.6C171.483 12.072 172.539 11.808 173.739 11.808C174.907 11.808 175.923 12.072 176.787 12.6C177.651 13.112 178.323 13.8 178.803 14.664C179.283 15.528 179.523 16.48 179.523 17.52C179.523 17.68 179.515 17.856 179.499 18.048C179.499 18.224 179.491 18.424 179.475 18.648H170.211C170.291 19.8 170.667 20.68 171.339 21.288C172.027 21.88 172.819 22.176 173.715 22.176C174.435 22.176 175.035 22.016 175.515 21.696C176.011 21.36 176.379 20.912 176.619 20.352H179.163C178.843 21.472 178.203 22.408 177.243 23.16C176.299 23.912 175.123 24.288 173.715 24.288ZM173.715 13.896C172.867 13.896 172.115 14.152 171.459 14.664C170.803 15.16 170.403 15.912 170.259 16.92H176.979C176.931 15.992 176.603 15.256 175.995 14.712C175.387 14.168 174.627 13.896 173.715 13.896Z" fill="white"/>
</svg>
